<svg width="25" height="25" viewBox="0 0 25 25" fill="none" xmlns="http://www.w3.org/2000/svg">
<path d="M12 2L7.853 4.68182H4.3V6.95455L2.067 8.42045C1.429 8.81818 1 9.53409 1 10.3636V21.7273C1 22.9886 1.99 24 3.2 24H20.8C22.021 24 23 22.9886 23 21.7273V10.3636C23 9.53409 22.571 8.81818 21.933 8.42045L19.7 6.95455V4.68182H16.147M6.5 6.95455H17.5V12.5L12 16.0455L6.5 12.5M7.6 8.09091V9.79545H16.4V8.09091M4.3 9.65909V11.0795L3.2 10.3636M19.7 9.65909L20.8 10.3636L19.7 11.0795M7.6 10.9318V12.6364H16.4V10.9318H7.6Z" fill="black"/>
</svg>
