<svg width="120" height="120" viewBox="0 0 120 120" fill="none" xmlns="http://www.w3.org/2000/svg">
<rect width="120" height="120" rx="15" fill="url(#paint0_radial_552_138)"/>
<g filter="url(#filter0_d_552_138)">
<rect x="42.2273" y="39" width="42.9999" height="33.2273" rx="5" transform="rotate(90 42.2273 39)" fill="white"/>
<rect x="41.7273" y="39.5" width="41.9999" height="32.2273" rx="4.5" transform="rotate(90 41.7273 39.5)" stroke="black"/>
</g>
<path d="M20.9088 51.8184V64.5332L20.6744 66.8184H18.4869V51.8184H20.9088ZM27.7838 61.6426C27.7838 62.6842 27.6276 63.6087 27.3151 64.416C27.0091 65.2233 26.5501 65.8581 25.9381 66.3203C25.3326 66.7826 24.5774 67.0137 23.6725 67.0137C22.7936 67.0137 22.0644 66.7923 21.485 66.3496C20.9121 65.9069 20.4661 65.2982 20.1471 64.5234C19.8346 63.7422 19.6198 62.8438 19.5026 61.8281V61.252C19.6198 60.2298 19.8346 59.3314 20.1471 58.5566C20.4661 57.7754 20.9121 57.1634 21.485 56.7207C22.0579 56.278 22.7806 56.0566 23.653 56.0566C24.5644 56.0566 25.3261 56.2845 25.9381 56.7402C26.5501 57.196 27.0091 57.8275 27.3151 58.6348C27.6276 59.4421 27.7838 60.3763 27.7838 61.4375V61.6426ZM25.3619 61.4375C25.3619 60.819 25.2903 60.2526 25.1471 59.7383C25.0104 59.224 24.7727 58.8138 24.4342 58.5078C24.1022 58.1953 23.6399 58.0391 23.0475 58.0391C22.6373 58.0391 22.2858 58.1074 21.9928 58.2441C21.6998 58.3809 21.4524 58.5697 21.2506 58.8105C21.0553 59.0514 20.9023 59.3346 20.7916 59.6602C20.681 59.9857 20.6061 60.3372 20.567 60.7148V62.375C20.6256 62.8633 20.7461 63.3092 20.9283 63.7129C21.1106 64.1165 21.3776 64.4388 21.7291 64.6797C22.0807 64.9141 22.5267 65.0312 23.067 65.0312C23.6464 65.0312 24.1022 64.8815 24.4342 64.582C24.7662 64.2826 25.0039 63.8789 25.1471 63.3711C25.2903 62.8568 25.3619 62.2806 25.3619 61.6426V61.4375ZM32.3151 66.8184H29.8932V51.8184H32.3151V66.8184Z" fill="black"/>
<g filter="url(#filter1_d_552_138)">
<rect x="76.3317" y="39" width="42.9999" height="33.2273" rx="5" transform="rotate(90 76.3317 39)" fill="#FDF1CD"/>
<rect x="75.8317" y="39.5" width="41.9999" height="32.2273" rx="4.5" transform="rotate(90 75.8317 39.5)" stroke="black"/>
</g>
<path d="M60.0711 67.0137C59.0229 67.0137 58.118 66.7891 57.3563 66.3398C56.5945 65.8841 56.0086 65.2721 55.5985 64.5039C55.1883 63.7292 54.9832 62.8633 54.9832 61.9062V61.5059C54.9832 60.4056 55.1916 59.4486 55.6082 58.6348C56.0249 57.8145 56.5945 57.1797 57.3172 56.7305C58.0464 56.2812 58.8699 56.0566 59.7879 56.0566C60.8035 56.0566 61.6466 56.278 62.3172 56.7207C62.9878 57.1569 63.4891 57.7656 63.8211 58.5469C64.1531 59.3216 64.3192 60.2201 64.3192 61.2422V62.2871H56.1453V60.5391H61.9266V60.3535C61.9136 59.9434 61.8354 59.5592 61.6922 59.2012C61.549 58.8431 61.3211 58.5534 61.0086 58.332C60.7026 58.1107 60.2925 58 59.7781 58C59.2638 58 58.8309 58.1465 58.4793 58.4395C58.1278 58.7259 57.8608 59.1328 57.6785 59.6602C57.4962 60.181 57.4051 60.7962 57.4051 61.5059V61.9062C57.4051 62.5052 57.5158 63.0423 57.7371 63.5176C57.9585 63.9928 58.2807 64.3704 58.7039 64.6504C59.1271 64.9238 59.6317 65.0605 60.2176 65.0605C60.784 65.0605 61.2853 64.9499 61.7215 64.7285C62.1642 64.5072 62.5451 64.1882 62.8641 63.7715L64.1336 65.041C63.8016 65.5423 63.3003 65.998 62.6297 66.4082C61.9656 66.8118 61.1128 67.0137 60.0711 67.0137Z" fill="black"/>
<g filter="url(#filter2_d_552_138)">
<rect x="110.436" y="39" width="42.9999" height="33.2273" rx="5" transform="rotate(90 110.436 39)" fill="white"/>
<rect x="109.936" y="39.5" width="41.9999" height="32.2273" rx="4.5" transform="rotate(90 109.936 39.5)" stroke="black"/>
</g>
<path d="M85.7513 66.8184H83.3294V56.252H85.6048L85.7513 58.5078V66.8184ZM84.5403 61.1641C84.5469 60.1419 84.7259 59.25 85.0775 58.4883C85.429 57.7201 85.9206 57.1243 86.5521 56.7012C87.1836 56.2715 87.9193 56.0566 88.7591 56.0566C89.4427 56.0566 90.0351 56.1868 90.5364 56.4473C91.0377 56.7012 91.4284 57.1178 91.7083 57.6973C91.9883 58.2702 92.1282 59.0417 92.1282 60.0117V66.8184H89.6966V59.9922C89.6966 59.5039 89.625 59.1165 89.4818 58.8301C89.345 58.5436 89.1367 58.3418 88.8568 58.2246C88.5833 58.1009 88.248 58.0391 87.8509 58.0391C87.4472 58.0391 87.0892 58.1204 86.7767 58.2832C86.4707 58.4395 86.207 58.6608 85.9857 58.9473C85.7708 59.2337 85.6048 59.5658 85.4876 59.9434C85.3769 60.321 85.3216 60.7246 85.3216 61.1543L84.5403 61.1641ZM100.927 51.8184H103.349V66.8184H101.152L100.927 64.6016V51.8184ZM94.0716 61.4473C94.0716 60.3796 94.2376 59.4421 94.5696 58.6348C94.9082 57.821 95.3867 57.1895 96.0052 56.7402C96.6237 56.2845 97.3659 56.0566 98.2318 56.0566C99.0846 56.0566 99.7975 56.278 100.37 56.7207C100.943 57.1634 101.393 57.7786 101.718 58.5664C102.05 59.3477 102.271 60.2559 102.382 61.291V61.8574C102.271 62.86 102.053 63.7487 101.728 64.5234C101.402 65.2982 100.95 65.9069 100.37 66.3496C99.7975 66.7923 99.0781 67.0137 98.2122 67.0137C97.3594 67.0137 96.6237 66.7826 96.0052 66.3203C95.3867 65.8516 94.9082 65.2135 94.5696 64.4062C94.2376 63.599 94.0716 62.681 94.0716 61.6523V61.4473ZM96.4935 61.6523C96.4935 62.2773 96.5716 62.847 96.7278 63.3613C96.8841 63.8691 97.1315 64.276 97.47 64.582C97.8151 64.8815 98.2676 65.0312 98.8275 65.0312C99.3548 65.0312 99.7877 64.9173 100.126 64.6895C100.471 64.4551 100.738 64.1393 100.927 63.7422C101.122 63.3451 101.256 62.8991 101.327 62.4043V60.7539C101.282 60.3633 101.201 60.002 101.083 59.6699C100.966 59.3379 100.807 59.0514 100.605 58.8105C100.409 58.5697 100.165 58.3809 99.8724 58.2441C99.5794 58.1074 99.2376 58.0391 98.847 58.0391C98.2871 58.0391 97.8314 58.1921 97.4798 58.498C97.1347 58.7975 96.8841 59.2077 96.7278 59.7285C96.5716 60.2428 96.4935 60.8158 96.4935 61.4473V61.6523Z" fill="black"/>
<defs>
<filter id="filter0_d_552_138" x="5" y="39" width="41.2273" height="51" filterUnits="userSpaceOnUse" color-interpolation-filters="sRGB">
<feFlood flood-opacity="0" result="BackgroundImageFix"/>
<feColorMatrix in="SourceAlpha" type="matrix" values="0 0 0 0 0 0 0 0 0 0 0 0 0 0 0 0 0 0 127 0" result="hardAlpha"/>
<feOffset dy="4"/>
<feGaussianBlur stdDeviation="2"/>
<feComposite in2="hardAlpha" operator="out"/>
<feColorMatrix type="matrix" values="0 0 0 0 0 0 0 0 0 0 0 0 0 0 0 0 0 0 0.25 0"/>
<feBlend mode="normal" in2="BackgroundImageFix" result="effect1_dropShadow_552_138"/>
<feBlend mode="normal" in="SourceGraphic" in2="effect1_dropShadow_552_138" result="shape"/>
</filter>
<filter id="filter1_d_552_138" x="39.1044" y="39" width="41.2273" height="51" filterUnits="userSpaceOnUse" color-interpolation-filters="sRGB">
<feFlood flood-opacity="0" result="BackgroundImageFix"/>
<feColorMatrix in="SourceAlpha" type="matrix" values="0 0 0 0 0 0 0 0 0 0 0 0 0 0 0 0 0 0 127 0" result="hardAlpha"/>
<feOffset dy="4"/>
<feGaussianBlur stdDeviation="2"/>
<feComposite in2="hardAlpha" operator="out"/>
<feColorMatrix type="matrix" values="0 0 0 0 0 0 0 0 0 0 0 0 0 0 0 0 0 0 0.25 0"/>
<feBlend mode="normal" in2="BackgroundImageFix" result="effect1_dropShadow_552_138"/>
<feBlend mode="normal" in="SourceGraphic" in2="effect1_dropShadow_552_138" result="shape"/>
</filter>
<filter id="filter2_d_552_138" x="73.2086" y="39" width="41.2273" height="51" filterUnits="userSpaceOnUse" color-interpolation-filters="sRGB">
<feFlood flood-opacity="0" result="BackgroundImageFix"/>
<feColorMatrix in="SourceAlpha" type="matrix" values="0 0 0 0 0 0 0 0 0 0 0 0 0 0 0 0 0 0 127 0" result="hardAlpha"/>
<feOffset dy="4"/>
<feGaussianBlur stdDeviation="2"/>
<feComposite in2="hardAlpha" operator="out"/>
<feColorMatrix type="matrix" values="0 0 0 0 0 0 0 0 0 0 0 0 0 0 0 0 0 0 0.25 0"/>
<feBlend mode="normal" in2="BackgroundImageFix" result="effect1_dropShadow_552_138"/>
<feBlend mode="normal" in="SourceGraphic" in2="effect1_dropShadow_552_138" result="shape"/>
</filter>
<radialGradient id="paint0_radial_552_138" cx="0" cy="0" r="1" gradientUnits="userSpaceOnUse" gradientTransform="translate(60 60) rotate(58.7596) scale(299.627 224.175)">
<stop stop-color="#7E89EC"/>
<stop offset="0.552083" stop-color="#16D4E6"/>
<stop offset="1" stop-color="#006D74"/>
</radialGradient>
</defs>
</svg>
