<svg xmlns="http://www.w3.org/2000/svg" xmlns:xlink="http://www.w3.org/1999/xlink" width="500" zoomAndPan="magnify" viewBox="0 0 375 374.999991" height="500" preserveAspectRatio="xMidYMid meet" version="1.0"><defs><clipPath id="c10bf46a0c"><path d="M 40.976562 141 L 233 141 L 233 329.621094 L 40.976562 329.621094 Z M 40.976562 141 " clip-rule="nonzero"/></clipPath><clipPath id="4b8745a89a"><path d="M 302 133 L 334.226562 133 L 334.226562 165 L 302 165 Z M 302 133 " clip-rule="nonzero"/></clipPath></defs><g clip-path="url(#c10bf46a0c)"><path fill="#fcb216" d="M 120.507812 141.96875 L 40.976562 329.265625 L 232.335938 248.214844 Z M 120.507812 141.96875 " fill-opacity="1" fill-rule="nonzero"/></g><path fill="#4e352f" d="M 202.808594 167.40625 C 204.652344 169.25 206.457031 171.121094 208.226562 173.023438 C 209.996094 174.925781 211.714844 176.851562 213.390625 178.792969 C 215.066406 180.734375 216.683594 182.691406 218.25 184.65625 C 219.8125 186.621094 221.316406 188.585938 222.757812 190.554688 C 224.195312 192.519531 225.566406 194.480469 226.867188 196.433594 C 228.167969 198.382812 229.394531 200.320312 230.542969 202.234375 C 231.695312 204.152344 232.761719 206.042969 233.75 207.90625 C 234.738281 209.769531 235.636719 211.597656 236.453125 213.390625 C 237.269531 215.183594 237.996094 216.929688 238.628906 218.632812 C 239.265625 220.335938 239.808594 221.988281 240.257812 223.589844 C 240.710938 225.1875 241.0625 226.726562 241.324219 228.203125 C 241.582031 229.683594 241.746094 231.09375 241.8125 232.4375 C 241.878906 233.78125 241.851562 235.050781 241.726562 236.25 C 241.597656 237.445312 241.375 238.5625 241.058594 239.601562 C 240.738281 240.636719 240.328125 241.589844 239.820312 242.460938 C 239.3125 243.328125 238.710938 244.105469 238.019531 244.796875 C 237.328125 245.488281 236.546875 246.089844 235.679688 246.597656 C 234.808594 247.101562 233.855469 247.515625 232.816406 247.832031 C 231.78125 248.152344 230.664062 248.375 229.464844 248.5 C 228.265625 248.625 226.996094 248.65625 225.652344 248.589844 C 224.304688 248.523438 222.894531 248.359375 221.414062 248.097656 C 219.933594 247.839844 218.394531 247.484375 216.792969 247.035156 C 215.195312 246.585938 213.542969 246.042969 211.835938 245.40625 C 210.132812 244.773438 208.382812 244.046875 206.589844 243.234375 C 204.796875 242.417969 202.964844 241.515625 201.101562 240.53125 C 199.238281 239.542969 197.34375 238.476562 195.425781 237.328125 C 193.507812 236.179688 191.574219 234.953125 189.621094 233.652344 C 187.667969 232.351562 185.707031 230.984375 183.738281 229.546875 C 181.765625 228.105469 179.800781 226.605469 177.832031 225.042969 C 175.867188 223.476562 173.910156 221.859375 171.96875 220.1875 C 170.023438 218.511719 168.097656 216.792969 166.195312 215.027344 C 164.292969 213.257812 162.417969 211.453125 160.570312 209.609375 C 158.726562 207.765625 156.921875 205.894531 155.152344 203.992188 C 153.382812 202.089844 151.664062 200.164062 149.988281 198.222656 C 148.3125 196.28125 146.695312 194.324219 145.128906 192.359375 C 143.566406 190.394531 142.0625 188.429688 140.621094 186.460938 C 139.183594 184.496094 137.8125 182.535156 136.511719 180.582031 C 135.210938 178.632812 133.984375 176.699219 132.835938 174.78125 C 131.683594 172.863281 130.617188 170.972656 129.628906 169.109375 C 128.640625 167.246094 127.742188 165.417969 126.925781 163.625 C 126.109375 161.832031 125.382812 160.085938 124.75 158.382812 C 124.113281 156.679688 123.570312 155.027344 123.121094 153.429688 C 122.671875 151.828125 122.316406 150.289062 122.054688 148.8125 C 121.796875 147.332031 121.632812 145.921875 121.566406 144.578125 C 121.5 143.234375 121.527344 141.964844 121.652344 140.765625 C 121.78125 139.570312 122.003906 138.453125 122.320312 137.414062 C 122.640625 136.378906 123.050781 135.425781 123.558594 134.558594 C 124.066406 133.6875 124.667969 132.910156 125.359375 132.21875 C 126.050781 131.527344 126.832031 130.925781 127.699219 130.421875 C 128.570312 129.914062 129.523438 129.5 130.5625 129.183594 C 131.597656 128.863281 132.714844 128.640625 133.914062 128.515625 C 135.113281 128.390625 136.382812 128.359375 137.726562 128.425781 C 139.074219 128.492188 140.484375 128.65625 141.964844 128.917969 C 143.445312 129.175781 144.984375 129.53125 146.585938 129.980469 C 148.183594 130.429688 149.835938 130.972656 151.542969 131.609375 C 153.246094 132.242188 154.996094 132.96875 156.789062 133.78125 C 158.582031 134.597656 160.414062 135.5 162.277344 136.484375 C 164.140625 137.472656 166.035156 138.539062 167.953125 139.6875 C 169.871094 140.835938 171.804688 142.0625 173.757812 143.363281 C 175.710938 144.664062 177.671875 146.03125 179.640625 147.472656 C 181.613281 148.910156 183.578125 150.410156 185.546875 151.972656 C 187.511719 153.539062 189.46875 155.15625 191.410156 156.828125 C 193.355469 158.503906 195.28125 160.222656 197.183594 161.988281 C 199.085938 163.757812 200.960938 165.5625 202.808594 167.40625 Z M 202.808594 167.40625 " fill-opacity="1" fill-rule="nonzero"/><path fill="#fde581" d="M 132.011719 173.308594 L 41.746094 327.4375 L 151.375 199.839844 C 151.375 199.839844 140.277344 186.429688 137.0625 181.402344 C 133.847656 176.375 132.011719 173.308594 132.011719 173.308594 Z M 132.011719 173.308594 " fill-opacity="1" fill-rule="nonzero"/><path fill="#f78e1e" d="M 170.671875 185.835938 C 170.671875 185.835938 186.226562 163.835938 211.820312 155.34375 C 237.410156 146.851562 255.519531 145.5 249.816406 137.832031 C 244.117188 130.164062 227.800781 109.695312 236.234375 99.859375 C 244.664062 90.027344 270.492188 94.359375 287.617188 98.683594 C 287.617188 98.683594 290.4375 99.925781 290.4375 99.011719 C 290.4375 98.101562 268.785156 64.78125 296.734375 55.199219 C 324.683594 45.621094 330.988281 50.878906 330.988281 50.878906 L 330.988281 66.605469 C 330.988281 66.605469 301.984375 66.089844 300.410156 71.207031 C 298.835938 76.320312 297.261719 79.597656 305.132812 92.445312 C 313.003906 105.292969 301.71875 117.746094 286.097656 114.609375 C 270.480469 111.476562 250.796875 107.40625 250.136719 108.449219 C 249.476562 109.496094 269.300781 132.71875 266.417969 140.976562 C 263.535156 149.238281 265.316406 157.476562 237.542969 164.1875 C 209.769531 170.898438 170.671875 185.835938 170.671875 185.835938 Z M 170.671875 185.835938 " fill-opacity="1" fill-rule="nonzero"/><path fill="#3474ba" d="M 193.796875 210.542969 C 193.796875 210.542969 229.242188 182.214844 275.015625 188.410156 C 320.785156 194.601562 326.101562 212.027344 329.050781 219.101562 C 332.003906 226.171875 330.988281 228.84375 330.988281 228.84375 L 315.765625 228.84375 C 315.765625 228.84375 316.65625 204.644531 277.085938 203.753906 C 237.511719 202.863281 193.796875 210.542969 193.796875 210.542969 Z M 193.796875 210.542969 " fill-opacity="1" fill-rule="nonzero"/><path fill="#ed1459" d="M 129.808594 82.214844 L 129.808594 66.738281 C 129.808594 66.738281 166.949219 68.3125 174.039062 94.019531 C 181.128906 119.726562 175.878906 136.125 170.738281 144.785156 C 165.597656 153.441406 153.6875 163.539062 153.6875 163.539062 C 153.6875 163.539062 166.597656 112.652344 159.507812 99.925781 C 152.417969 87.199219 129.808594 82.214844 129.808594 82.214844 Z M 129.808594 82.214844 " fill-opacity="1" fill-rule="nonzero"/><path fill="#f78e1e" d="M 299.410156 267.417969 L 315.070312 251.769531 L 330.730469 267.417969 L 315.070312 283.066406 Z M 299.410156 267.417969 " fill-opacity="1" fill-rule="nonzero"/><g clip-path="url(#4b8745a89a)"><path fill="#ed1459" d="M 302.859375 148.898438 L 318.519531 133.25 L 334.179688 148.898438 L 318.519531 164.550781 Z M 302.859375 148.898438 " fill-opacity="1" fill-rule="nonzero"/></g><path fill="#fcb216" d="M 262.480469 241.195312 L 278.140625 225.542969 L 293.800781 241.195312 L 278.140625 256.84375 Z M 262.480469 241.195312 " fill-opacity="1" fill-rule="nonzero"/><path fill="#f78e1e" d="M 191.015625 110.972656 L 206.675781 95.324219 L 222.335938 110.972656 L 206.675781 126.625 Z M 191.015625 110.972656 " fill-opacity="1" fill-rule="nonzero"/><path fill="#3474ba" d="M 173.59375 65.09375 L 189.253906 49.445312 L 204.914062 65.09375 L 189.253906 80.742188 Z M 173.59375 65.09375 " fill-opacity="1" fill-rule="nonzero"/><path fill="#fcb216" d="M 85.105469 63.953125 L 100.769531 48.300781 L 116.429688 63.953125 L 100.769531 79.601562 Z M 85.105469 63.953125 " fill-opacity="1" fill-rule="nonzero"/></svg>