<svg xmlns="http://www.w3.org/2000/svg" xmlns:xlink="http://www.w3.org/1999/xlink" width="500" zoomAndPan="magnify" viewBox="0 0 375 374.999991" height="500" preserveAspectRatio="xMidYMid meet" version="1.0"><defs><clipPath id="fc033f80bb"><path d="M 230 289 L 272 289 L 272 352.496094 L 230 352.496094 Z M 230 289 " clip-rule="nonzero"/></clipPath><clipPath id="396b2999be"><path d="M 200 22.496094 L 251 22.496094 L 251 73 L 200 73 Z M 200 22.496094 " clip-rule="nonzero"/></clipPath></defs><path fill="#e86b57" d="M 233.3125 305.285156 C 232.707031 304.644531 231.851562 304.292969 230.957031 304.320312 L 208.992188 305.003906 C 208.125 305.03125 207.304688 305.417969 206.738281 306.078125 C 206.164062 306.730469 205.890625 307.589844 205.984375 308.457031 L 209.773438 344.238281 C 209.949219 345.835938 211.292969 347.035156 212.882812 347.035156 L 212.980469 347.027344 L 228.277344 346.550781 C 229.867188 346.503906 231.167969 345.269531 231.292969 343.679688 L 234.164062 307.695312 C 234.234375 306.800781 233.925781 305.933594 233.3125 305.285156 " fill-opacity="1" fill-rule="nonzero"/><path fill="#e86b57" d="M 124.058594 285.378906 C 123.453125 284.746094 122.617188 284.398438 121.722656 284.433594 L 99.761719 285.117188 C 98.90625 285.148438 98.089844 285.523438 97.519531 286.171875 C 96.949219 286.8125 96.667969 287.664062 96.75 288.519531 L 100.871094 334.808594 C 101.007812 336.421875 102.367188 337.65625 103.972656 337.65625 L 104.078125 337.652344 L 119.375 337.179688 C 120.992188 337.128906 122.300781 335.84375 122.394531 334.226562 L 124.9375 287.726562 C 124.988281 286.851562 124.671875 286 124.058594 285.378906 " fill-opacity="1" fill-rule="nonzero"/><g clip-path="url(#fc033f80bb)"><path fill="#f4a18f" d="M 270.546875 290.425781 C 269.941406 289.78125 269.105469 289.410156 268.1875 289.453125 L 233.964844 290.523438 C 233.101562 290.550781 232.273438 290.9375 231.710938 291.59375 C 231.140625 292.25 230.867188 293.113281 230.957031 293.980469 L 236.863281 349.722656 C 237.042969 351.320312 238.382812 352.519531 239.972656 352.519531 L 240.074219 352.519531 L 263.90625 351.78125 C 265.492188 351.730469 266.792969 350.492188 266.917969 348.898438 L 271.402344 292.832031 C 271.46875 291.941406 271.160156 291.066406 270.546875 290.425781 " fill-opacity="1" fill-rule="nonzero"/></g><path fill="#f4a18f" d="M 159.703125 288.601562 C 159.09375 287.957031 158.25 287.582031 157.339844 287.632812 L 123.125 288.695312 C 122.253906 288.730469 121.429688 289.109375 120.867188 289.765625 C 120.292969 290.425781 120.019531 291.289062 120.113281 292.152344 L 126.023438 347.902344 C 126.191406 349.492188 127.542969 350.691406 129.121094 350.691406 L 129.222656 350.691406 L 153.058594 349.949219 C 154.652344 349.898438 155.949219 348.664062 156.074219 347.074219 L 160.550781 291.007812 C 160.621094 290.117188 160.320312 289.242188 159.703125 288.601562 " fill-opacity="1" fill-rule="nonzero"/><path fill="#f4a18f" d="M 177.390625 153.890625 C 128.660156 158.445312 88.308594 182.445312 70.089844 213.738281 C 67 218.636719 67.117188 217.804688 64.4375 225.460938 C 60.574219 235.527344 58.933594 246.132812 59.941406 256.941406 C 64.644531 307.34375 124.84375 342.941406 194.410156 336.4375 C 263.980469 329.9375 303.449219 296.144531 303.449219 241.832031 C 303.449219 188.972656 246.953125 147.390625 177.390625 153.890625 " fill-opacity="1" fill-rule="nonzero"/><path fill="#e86b57" d="M 96.714844 264.441406 C 96.386719 255.554688 87.285156 247.542969 73.339844 245.285156 L 75.519531 245.691406 C 85.542969 247.875 93.125 255.546875 93.488281 264.875 C 93.894531 275.242188 85.253906 283.980469 73.691406 285.589844 C 73.652344 285.699219 72.078125 285.699219 72.03125 285.8125 C 91.523438 283.496094 97.101562 274.929688 96.714844 264.441406 " fill-opacity="1" fill-rule="nonzero"/><path fill="#f6af98" d="M 93.488281 264.875 C 93.925781 276.15625 83.671875 285.5625 70.574219 285.886719 C 57.484375 286.214844 46.519531 277.335938 46.074219 266.054688 C 45.640625 254.777344 55.894531 245.382812 68.984375 245.046875 C 82.082031 244.730469 93.046875 253.597656 93.488281 264.875 " fill-opacity="1" fill-rule="nonzero"/><path fill="#f4a18f" d="M 101.074219 151.992188 C 116.957031 151.992188 129.796875 169.75 129.796875 169.75 C 129.796875 169.992188 118.410156 166.816406 92.574219 188.972656 C 94.117188 187.648438 94.605469 185.410156 95.371094 183.457031 C 99.351562 173.066406 86.699219 156.542969 88.585938 154.789062 C 90.480469 153.03125 97.820312 151.992188 101.074219 151.992188 " fill-opacity="1" fill-rule="evenodd"/><path fill="#e86b57" d="M 146.167969 176.738281 C 161.800781 173.914062 177.585938 189.097656 177.585938 189.097656 C 159.542969 191.4375 146.148438 208.714844 146.148438 208.714844 C 148.21875 197.792969 132.832031 183.785156 134.378906 181.714844 C 135.933594 179.652344 142.96875 177.320312 146.167969 176.738281 " fill-opacity="1" fill-rule="evenodd"/><path fill="#351f17" d="M 111.253906 225.367188 C 113.363281 225.367188 115.042969 230.082031 115.042969 235.863281 C 115.042969 241.65625 113.363281 246.367188 111.253906 246.367188 C 109.152344 246.367188 107.429688 241.65625 107.429688 235.863281 C 107.429688 230.082031 109.152344 225.367188 111.253906 225.367188 " fill-opacity="1" fill-rule="evenodd"/><path fill="#351f17" d="M 82.25 217.273438 C 84.351562 217.273438 86.039062 221.984375 86.039062 227.765625 C 86.039062 233.558594 84.351562 238.269531 82.25 238.269531 C 80.144531 238.269531 78.421875 233.558594 78.421875 227.765625 C 78.421875 221.984375 80.144531 217.273438 82.25 217.273438 " fill-opacity="1" fill-rule="evenodd"/><path fill="#e86b57" d="M 57.433594 265.351562 C 57.46875 263.304688 59.167969 261.679688 61.226562 261.714844 C 63.285156 261.746094 64.933594 263.425781 64.898438 265.472656 C 64.867188 267.511719 63.171875 269.132812 61.105469 269.105469 C 59.050781 269.074219 57.40625 267.390625 57.433594 265.351562 " fill-opacity="1" fill-rule="nonzero"/><path fill="#e86b57" d="M 72.242188 265.589844 C 72.273438 263.546875 73.96875 261.917969 76.03125 261.957031 C 78.089844 261.984375 79.734375 263.664062 79.703125 265.710938 C 79.671875 267.75 77.96875 269.371094 75.914062 269.339844 C 73.847656 269.308594 72.210938 267.628906 72.242188 265.589844 " fill-opacity="1" fill-rule="nonzero"/><path fill="#f4a18f" d="M 306.558594 197.171875 L 306.296875 197.191406 L 305.816406 197.238281 L 305.699219 197.257812 L 305.660156 197.261719 L 305.402344 197.253906 C 304.9375 197.230469 304.472656 197.210938 304.007812 197.195312 L 303.019531 197.035156 C 300.203125 196.546875 297.257812 194.867188 295.703125 192.316406 C 294.933594 191.074219 294.46875 189.660156 294.558594 188.421875 C 294.609375 188.128906 294.59375 187.816406 294.707031 187.546875 L 294.753906 187.328125 L 294.78125 187.222656 L 294.785156 187.210938 L 295.074219 186.507812 L 295.375 185.753906 C 295.472656 185.492188 295.578125 185.234375 295.671875 185.113281 C 295.859375 184.804688 296.039062 184.492188 296.207031 184.171875 C 298.035156 181.378906 300.171875 180.765625 302.90625 181.957031 C 304.242188 182.570312 305.515625 183.703125 306.507812 185.039062 L 306.859375 185.558594 L 307.023438 185.792969 L 307.09375 185.921875 L 307.839844 187.375 C 307.902344 187.675781 307.988281 187.964844 308.097656 188.25 C 308.195312 188.558594 308.230469 188.988281 308.3125 189.339844 C 308.652344 191.824219 307.898438 194.589844 306.558594 197.171875 M 328.3125 184.574219 C 328.132812 184.039062 327.976562 183.691406 327.863281 183.433594 C 327.757812 183.179688 327.699219 183.046875 327.699219 183.046875 L 327.691406 183.027344 C 327.363281 182.261719 326.605469 181.71875 325.71875 181.703125 C 324.511719 181.6875 323.515625 182.648438 323.5 183.863281 C 323.5 183.863281 323.484375 184.417969 323.46875 185.460938 C 323.332031 185.828125 323.347656 186.136719 323.144531 186.675781 C 323.035156 187.199219 322.757812 187.75 322.496094 188.347656 C 321.875 189.496094 320.726562 190.828125 319.078125 191.9375 C 318.527344 192.277344 317.882812 192.75 317.382812 193.003906 C 316.839844 193.292969 316.34375 193.605469 315.679688 193.914062 L 315.464844 194.019531 C 315.800781 192.210938 315.917969 190.292969 315.664062 188.339844 C 315.523438 187.640625 315.453125 186.964844 315.234375 186.230469 C 315 185.484375 314.730469 184.730469 314.445312 183.992188 L 313.675781 182.515625 L 313.585938 182.328125 L 313.539062 182.238281 L 313.378906 181.949219 L 313.34375 181.894531 L 313.058594 181.472656 L 312.46875 180.628906 C 310.847656 178.4375 308.742188 176.496094 306.0625 175.230469 C 303.417969 173.964844 299.996094 173.507812 296.867188 174.574219 C 293.707031 175.617188 291.484375 177.988281 290.03125 180.289062 C 289.671875 180.921875 289.332031 181.566406 289.011719 182.210938 C 288.820312 182.558594 288.730469 182.804688 288.636719 183.050781 L 288.34375 183.804688 L 288.046875 184.554688 L 288.011719 184.65625 L 287.917969 184.902344 L 287.902344 184.96875 L 287.824219 185.257812 L 287.6875 185.828125 C 287.457031 186.589844 287.414062 187.351562 287.359375 188.109375 C 287.3125 189.246094 287.429688 190.335938 287.660156 191.375 C 287.933594 192.179688 288.527344 194.609375 289.90625 196.613281 C 291.191406 198.492188 292.914062 199.71875 293.382812 200.125 C 295.800781 202.054688 298.617188 203.300781 301.457031 203.839844 C 301.089844 204.175781 300.726562 204.546875 300.367188 204.851562 L 300.289062 204.914062 L 300.054688 205.074219 L 299.460938 205.480469 L 293.875 207.910156 C 293.679688 208.035156 293.472656 208.199219 293.296875 208.292969 L 292.839844 208.46875 L 292.054688 208.8125 C 293.296875 210.941406 294.199219 213.265625 294.761719 215.691406 L 294.910156 215.621094 C 295.457031 215.375 300.402344 213.496094 300.957031 213.234375 L 301.789062 212.835938 C 302.015625 212.707031 302.191406 212.578125 302.394531 212.441406 L 303.589844 211.644531 L 304.1875 211.234375 L 304.488281 211.027344 L 304.566406 210.980469 L 304.851562 210.773438 L 304.894531 210.738281 L 305.058594 210.597656 C 305.945312 209.863281 306.765625 209.101562 307.535156 208.292969 C 309.085938 206.6875 310.5 204.921875 311.769531 202.96875 C 312.609375 202.707031 313.40625 202.402344 314.171875 202.09375 C 315.839844 201.433594 317.367188 200.703125 318.808594 199.945312 C 319.519531 199.597656 320.273438 199.136719 320.976562 198.726562 C 321.746094 198.300781 322.21875 197.933594 322.804688 197.550781 C 325.597656 195.585938 327.433594 193.023438 328.152344 190.527344 C 328.910156 188.066406 328.613281 186.023438 328.3125 184.574219 " fill-opacity="1" fill-rule="nonzero"/><path fill="#efefef" d="M 303.449219 241.832031 C 303.449219 241.804688 303.449219 241.789062 303.449219 241.765625 C 303.449219 241.789062 303.449219 241.804688 303.449219 241.832031 M 303.449219 241.75 C 303.449219 241.726562 303.449219 241.710938 303.449219 241.683594 C 303.449219 241.707031 303.449219 241.726562 303.449219 241.75 M 303.449219 241.679688 C 303.449219 241.664062 303.449219 241.636719 303.449219 241.625 C 303.449219 241.640625 303.449219 241.664062 303.449219 241.679688 M 303.449219 241.605469 C 303.449219 241.585938 303.449219 241.5625 303.449219 241.546875 C 303.449219 241.5625 303.449219 241.585938 303.449219 241.605469 M 303.449219 241.527344 C 303.449219 241.515625 303.449219 241.492188 303.449219 241.476562 C 303.449219 241.492188 303.449219 241.511719 303.449219 241.527344 M 303.449219 241.464844 C 303.449219 241.441406 303.449219 241.421875 303.449219 241.402344 C 303.449219 241.425781 303.449219 241.441406 303.449219 241.464844 M 303.449219 241.386719 C 303.449219 241.367188 303.449219 241.351562 303.449219 241.339844 C 303.449219 241.351562 303.449219 241.367188 303.449219 241.386719 M 303.449219 241.316406 C 303.449219 241.300781 303.449219 241.28125 303.449219 241.261719 C 303.449219 241.28125 303.449219 241.300781 303.449219 241.316406 M 303.449219 241.234375 C 303.449219 241.222656 303.445312 241.210938 303.445312 241.195312 C 303.445312 241.210938 303.449219 241.222656 303.449219 241.234375 M 303.445312 241.175781 C 303.445312 241.15625 303.445312 241.136719 303.445312 241.117188 C 303.445312 241.136719 303.445312 241.15625 303.445312 241.175781 M 303.445312 241.09375 C 303.445312 241.078125 303.445312 241.066406 303.445312 241.054688 C 303.445312 241.066406 303.445312 241.078125 303.445312 241.09375 M 303.445312 241.019531 C 303.445312 241.007812 303.445312 240.992188 303.445312 240.980469 C 303.445312 240.992188 303.445312 241.007812 303.445312 241.019531 M 303.445312 240.945312 C 303.445312 240.9375 303.445312 240.925781 303.445312 240.914062 C 303.445312 240.929688 303.445312 240.9375 303.445312 240.945312 M 303.445312 240.863281 C 303.445312 240.859375 303.445312 240.847656 303.445312 240.839844 C 303.445312 240.847656 303.445312 240.855469 303.445312 240.863281 M 303.441406 240.804688 C 303.441406 240.796875 303.441406 240.789062 303.441406 240.785156 C 303.441406 240.789062 303.441406 240.796875 303.441406 240.804688 M 303.441406 240.714844 C 303.441406 240.707031 303.441406 240.707031 303.441406 240.699219 C 303.441406 240.703125 303.441406 240.707031 303.441406 240.714844 " fill-opacity="1" fill-rule="nonzero"/><path fill="#e59786" d="M 178.085938 337.203125 C 140.429688 337.203125 106.800781 324.867188 85.085938 304.902344 C 104.238281 314.402344 127.464844 319.851562 152.476562 319.851562 C 157.835938 319.851562 163.289062 319.601562 168.792969 319.082031 C 238.359375 312.585938 277.832031 278.792969 277.832031 224.476562 C 277.832031 202.1875 267.757812 181.929688 250.925781 166.410156 C 270.582031 176.035156 286.011719 190.355469 294.925781 207.449219 L 293.875 207.910156 C 293.679688 208.035156 293.472656 208.199219 293.296875 208.292969 L 292.839844 208.46875 L 292.054688 208.8125 C 293.296875 210.941406 294.199219 213.265625 294.761719 215.691406 L 294.910156 215.621094 C 295.195312 215.492188 296.679688 214.917969 298.113281 214.363281 C 301.445312 222.660156 303.300781 231.503906 303.441406 240.699219 C 303.441406 240.707031 303.441406 240.707031 303.441406 240.714844 C 303.441406 240.738281 303.441406 240.761719 303.441406 240.785156 C 303.441406 240.789062 303.441406 240.796875 303.441406 240.804688 C 303.445312 240.816406 303.445312 240.828125 303.445312 240.839844 C 303.445312 240.847656 303.445312 240.859375 303.445312 240.863281 C 303.445312 240.882812 303.445312 240.898438 303.445312 240.914062 C 303.445312 240.925781 303.445312 240.9375 303.445312 240.945312 C 303.445312 240.957031 303.445312 240.96875 303.445312 240.980469 C 303.445312 240.992188 303.445312 241.007812 303.445312 241.019531 C 303.445312 241.03125 303.445312 241.046875 303.445312 241.054688 C 303.445312 241.066406 303.445312 241.078125 303.445312 241.09375 C 303.445312 241.101562 303.445312 241.109375 303.445312 241.117188 C 303.445312 241.136719 303.445312 241.15625 303.445312 241.175781 C 303.445312 241.183594 303.445312 241.191406 303.445312 241.195312 C 303.445312 241.210938 303.449219 241.222656 303.449219 241.234375 C 303.449219 241.242188 303.449219 241.253906 303.449219 241.261719 C 303.449219 241.28125 303.449219 241.300781 303.449219 241.316406 C 303.449219 241.324219 303.449219 241.328125 303.449219 241.339844 C 303.449219 241.351562 303.449219 241.367188 303.449219 241.386719 C 303.449219 241.390625 303.449219 241.394531 303.449219 241.402344 C 303.449219 241.421875 303.449219 241.441406 303.449219 241.464844 C 303.449219 241.46875 303.449219 241.472656 303.449219 241.476562 C 303.449219 241.492188 303.449219 241.515625 303.449219 241.527344 C 303.449219 241.535156 303.449219 241.535156 303.449219 241.546875 C 303.449219 241.5625 303.449219 241.585938 303.449219 241.605469 C 303.449219 241.609375 303.449219 241.613281 303.449219 241.625 C 303.449219 241.636719 303.449219 241.664062 303.449219 241.679688 C 303.449219 241.679688 303.449219 241.683594 303.449219 241.683594 C 303.449219 241.710938 303.449219 241.726562 303.449219 241.75 C 303.449219 241.753906 303.449219 241.757812 303.449219 241.765625 C 303.449219 241.789062 303.449219 241.804688 303.449219 241.832031 C 303.449219 271.371094 291.777344 294.839844 269.941406 311.148438 C 260.160156 318.449219 248.351562 324.316406 234.632812 328.652344 C 233.910156 328.882812 233.175781 329.105469 232.4375 329.324219 C 225.070312 331.539062 217.171875 333.316406 208.757812 334.648438 C 204.128906 335.382812 199.347656 335.976562 194.410156 336.4375 C 188.90625 336.953125 183.457031 337.203125 178.085938 337.203125 " fill-opacity="1" fill-rule="nonzero"/><path fill="#e59786" d="M 294.761719 215.691406 C 294.199219 213.265625 293.296875 210.941406 292.054688 208.8125 L 292.839844 208.46875 L 293.296875 208.292969 C 293.472656 208.199219 293.679688 208.035156 293.875 207.910156 L 294.925781 207.449219 C 296.101562 209.707031 297.167969 212.015625 298.113281 214.363281 C 296.679688 214.917969 295.195312 215.492188 294.910156 215.621094 L 294.761719 215.691406 " fill-opacity="1" fill-rule="nonzero"/><path fill="#e86b57" d="M 196.359375 157.808594 C 206.585938 157.808594 216.265625 159.257812 224.988281 161.855469 L 224.988281 169.722656 C 216.523438 166.601562 206.78125 164.832031 196.359375 164.832031 C 188.578125 164.832031 181.164062 165.824219 174.371094 167.632812 L 174.371094 160.15625 C 181.277344 158.636719 188.6875 157.808594 196.359375 157.808594 " fill-opacity="1" fill-rule="evenodd"/><path fill="#d5624f" d="M 196.359375 159.746094 C 206.585938 159.746094 216.265625 161.191406 224.988281 163.789062 L 224.988281 171.65625 C 216.523438 168.535156 206.78125 166.769531 196.359375 166.769531 C 188.578125 166.769531 181.164062 167.757812 174.371094 169.5625 L 174.371094 162.089844 C 181.277344 160.570312 188.6875 159.746094 196.359375 159.746094 " fill-opacity="1" fill-rule="evenodd"/><path fill="#f1a017" d="M 198.382812 164.777344 C 212.074219 164.777344 223.238281 153.597656 223.238281 139.890625 C 223.238281 126.191406 212.074219 115.007812 198.382812 115.007812 C 184.691406 115.007812 173.523438 126.191406 173.523438 139.890625 C 173.523438 153.597656 184.691406 164.777344 198.382812 164.777344 " fill-opacity="1" fill-rule="evenodd"/><path fill="#fcce5c" d="M 198.382812 159.949219 C 209.414062 159.949219 218.414062 150.9375 218.414062 139.890625 C 218.414062 128.847656 209.414062 119.84375 198.382812 119.84375 C 187.347656 119.84375 178.355469 128.847656 178.355469 139.890625 C 178.355469 150.9375 187.347656 159.949219 198.382812 159.949219 " fill-opacity="1" fill-rule="evenodd"/><path fill="#f1a017" d="M 196.648438 149.976562 C 195.644531 149.730469 194.601562 149.308594 193.527344 148.707031 L 193.527344 149.910156 L 189.0625 149.910156 L 189.0625 142.488281 L 193.527344 142.488281 C 193.777344 143.5625 194.296875 144.410156 195.089844 145.011719 C 195.878906 145.621094 196.761719 145.917969 197.746094 145.917969 C 198.425781 145.917969 198.914062 145.792969 199.230469 145.535156 C 199.542969 145.277344 199.699219 145 199.699219 144.703125 C 199.699219 144.210938 199.4375 143.828125 198.894531 143.554688 C 198.355469 143.28125 197.691406 143.03125 196.898438 142.816406 C 196.105469 142.597656 195.238281 142.355469 194.296875 142.09375 C 193.359375 141.824219 192.5 141.445312 191.703125 140.941406 C 190.902344 140.441406 190.234375 139.773438 189.699219 138.960938 C 189.148438 138.136719 188.878906 137.0625 188.878906 135.71875 C 188.878906 134.738281 189.089844 133.871094 189.511719 133.117188 C 189.933594 132.371094 190.507812 131.734375 191.21875 131.226562 C 191.933594 130.707031 192.761719 130.308594 193.699219 130.03125 C 194.640625 129.75 195.617188 129.605469 196.648438 129.605469 L 196.648438 126.726562 L 200.128906 126.726562 L 200.128906 130.035156 C 200.691406 130.199219 201.199219 130.378906 201.644531 130.578125 C 202.085938 130.78125 202.457031 130.964844 202.753906 131.152344 L 202.753906 129.914062 L 207.265625 129.914062 L 207.265625 137.164062 L 202.753906 137.164062 C 202.6875 136.695312 202.523438 136.261719 202.269531 135.871094 C 202.007812 135.476562 201.703125 135.132812 201.339844 134.851562 C 200.980469 134.574219 200.578125 134.351562 200.128906 134.183594 C 199.6875 134.019531 199.238281 133.933594 198.792969 133.933594 C 198.234375 133.933594 197.769531 134.042969 197.40625 134.257812 C 197.039062 134.46875 196.863281 134.769531 196.863281 135.171875 C 196.863281 135.667969 197.136719 136.042969 197.6875 136.292969 C 198.238281 136.558594 198.925781 136.792969 199.726562 137.019531 C 200.535156 137.242188 201.417969 137.484375 202.378906 137.757812 C 203.335938 138.023438 204.21875 138.410156 205.027344 138.914062 C 205.832031 139.417969 206.511719 140.089844 207.066406 140.929688 C 207.613281 141.773438 207.886719 142.878906 207.886719 144.242188 C 207.886719 145.242188 207.675781 146.121094 207.261719 146.859375 C 206.84375 147.597656 206.277344 148.210938 205.5625 148.707031 C 204.84375 149.199219 204.023438 149.5625 203.082031 149.808594 C 202.144531 150.054688 201.160156 150.203125 200.128906 150.246094 L 200.128906 153.0625 L 196.648438 153.0625 L 196.648438 149.976562 " fill-opacity="1" fill-rule="nonzero"/><path fill="#bdbcbd" d="M 223.238281 139.847656 C 223.238281 139.84375 223.238281 139.839844 223.238281 139.835938 C 223.238281 139.839844 223.238281 139.84375 223.238281 139.847656 M 223.238281 139.808594 C 223.238281 139.800781 223.238281 139.796875 223.238281 139.792969 C 223.238281 139.796875 223.238281 139.800781 223.238281 139.808594 M 223.238281 139.765625 C 223.238281 139.761719 223.238281 139.753906 223.238281 139.75 C 223.238281 139.753906 223.238281 139.761719 223.238281 139.765625 M 223.238281 139.722656 C 223.238281 139.71875 223.238281 139.714844 223.238281 139.707031 C 223.238281 139.714844 223.238281 139.71875 223.238281 139.722656 M 223.238281 139.683594 C 223.238281 139.675781 223.238281 139.671875 223.238281 139.667969 C 223.238281 139.671875 223.238281 139.675781 223.238281 139.683594 M 223.238281 139.640625 C 223.238281 139.636719 223.238281 139.628906 223.238281 139.625 C 223.238281 139.628906 223.238281 139.636719 223.238281 139.640625 M 223.238281 139.597656 C 223.238281 139.59375 223.238281 139.589844 223.238281 139.585938 C 223.238281 139.589844 223.238281 139.59375 223.238281 139.597656 M 223.238281 139.558594 C 223.238281 139.554688 223.238281 139.546875 223.238281 139.542969 C 223.238281 139.546875 223.238281 139.550781 223.238281 139.558594 M 223.238281 139.515625 C 223.238281 139.511719 223.238281 139.507812 223.238281 139.5 C 223.238281 139.507812 223.238281 139.511719 223.238281 139.515625 M 223.238281 139.472656 C 223.238281 139.46875 223.238281 139.464844 223.234375 139.460938 C 223.238281 139.464844 223.238281 139.46875 223.238281 139.472656 M 223.234375 139.429688 C 223.234375 139.425781 223.234375 139.421875 223.234375 139.417969 C 223.234375 139.421875 223.234375 139.425781 223.234375 139.429688 M 223.234375 139.386719 C 223.234375 139.382812 223.234375 139.378906 223.234375 139.378906 C 223.234375 139.382812 223.234375 139.382812 223.234375 139.386719 M 223.234375 139.34375 C 223.234375 139.339844 223.234375 139.339844 223.234375 139.335938 C 223.234375 139.339844 223.234375 139.339844 223.234375 139.34375 M 223.234375 139.296875 C 223.234375 139.296875 223.234375 139.296875 223.234375 139.292969 C 223.234375 139.296875 223.234375 139.296875 223.234375 139.296875 M 223.226562 139.042969 C 223.226562 139.042969 223.226562 139.042969 223.226562 139.039062 C 223.226562 139.042969 223.226562 139.042969 223.226562 139.042969 M 223.214844 138.875 L 223.214844 138.871094 L 223.214844 138.875 " fill-opacity="1" fill-rule="nonzero"/><path fill="#9f4839" d="M 198.34375 164.777344 C 198.339844 164.777344 198.332031 164.777344 198.324219 164.777344 C 198.332031 164.777344 198.339844 164.777344 198.34375 164.777344 M 198.304688 164.777344 C 198.300781 164.777344 198.292969 164.777344 198.289062 164.777344 C 198.292969 164.777344 198.300781 164.777344 198.304688 164.777344 M 198.261719 164.777344 C 198.257812 164.777344 198.25 164.777344 198.246094 164.777344 C 198.25 164.777344 198.257812 164.777344 198.261719 164.777344 M 198.222656 164.777344 C 198.21875 164.777344 198.214844 164.777344 198.207031 164.777344 C 198.214844 164.777344 198.21875 164.777344 198.222656 164.777344 M 198.183594 164.777344 C 198.179688 164.777344 198.175781 164.777344 198.167969 164.777344 C 198.175781 164.777344 198.179688 164.777344 198.183594 164.777344 M 198.140625 164.777344 C 198.136719 164.777344 198.136719 164.777344 198.132812 164.777344 C 198.136719 164.777344 198.136719 164.777344 198.140625 164.777344 M 198.101562 164.777344 C 198.097656 164.777344 198.09375 164.777344 198.089844 164.777344 C 198.09375 164.777344 198.097656 164.777344 198.101562 164.777344 M 198.058594 164.769531 C 198.058594 164.769531 198.054688 164.769531 198.050781 164.769531 C 198.054688 164.769531 198.058594 164.769531 198.058594 164.769531 M 198.019531 164.769531 C 198.015625 164.769531 198.015625 164.769531 198.011719 164.769531 C 198.011719 164.769531 198.015625 164.769531 198.019531 164.769531 M 197.980469 164.769531 C 197.976562 164.769531 197.972656 164.769531 197.96875 164.769531 C 197.972656 164.769531 197.976562 164.769531 197.980469 164.769531 M 197.9375 164.769531 C 197.9375 164.769531 197.933594 164.769531 197.929688 164.769531 C 197.933594 164.769531 197.9375 164.769531 197.9375 164.769531 M 197.898438 164.769531 C 197.894531 164.769531 197.894531 164.769531 197.890625 164.769531 C 197.894531 164.769531 197.894531 164.769531 197.898438 164.769531 M 197.859375 164.769531 C 197.855469 164.769531 197.851562 164.769531 197.851562 164.769531 C 197.851562 164.769531 197.855469 164.769531 197.859375 164.769531 M 197.816406 164.769531 C 197.816406 164.769531 197.816406 164.765625 197.8125 164.765625 C 197.816406 164.769531 197.816406 164.769531 197.816406 164.769531 M 197.777344 164.765625 C 197.777344 164.765625 197.777344 164.765625 197.773438 164.765625 L 197.777344 164.765625 " fill-opacity="1" fill-rule="nonzero"/><path fill="#b27510" d="M 198.382812 164.777344 C 198.367188 164.777344 198.355469 164.777344 198.34375 164.777344 C 198.339844 164.777344 198.332031 164.777344 198.324219 164.777344 C 198.316406 164.777344 198.308594 164.777344 198.304688 164.777344 C 198.300781 164.777344 198.292969 164.777344 198.289062 164.777344 C 198.28125 164.777344 198.273438 164.777344 198.261719 164.777344 C 198.257812 164.777344 198.25 164.777344 198.246094 164.777344 C 198.238281 164.777344 198.230469 164.777344 198.222656 164.777344 C 198.21875 164.777344 198.214844 164.777344 198.207031 164.777344 C 198.199219 164.777344 198.191406 164.777344 198.183594 164.777344 C 198.179688 164.777344 198.175781 164.777344 198.167969 164.777344 C 198.160156 164.777344 198.148438 164.777344 198.140625 164.777344 C 198.136719 164.777344 198.136719 164.777344 198.132812 164.777344 C 198.117188 164.777344 198.109375 164.777344 198.101562 164.777344 C 198.097656 164.777344 198.09375 164.777344 198.089844 164.777344 C 198.078125 164.777344 198.070312 164.777344 198.058594 164.769531 C 198.058594 164.769531 198.054688 164.769531 198.050781 164.769531 C 198.035156 164.769531 198.027344 164.769531 198.019531 164.769531 C 198.015625 164.769531 198.011719 164.769531 198.011719 164.769531 C 197.996094 164.769531 197.988281 164.769531 197.980469 164.769531 C 197.976562 164.769531 197.972656 164.769531 197.96875 164.769531 C 197.957031 164.769531 197.949219 164.769531 197.9375 164.769531 C 197.9375 164.769531 197.933594 164.769531 197.929688 164.769531 C 197.917969 164.769531 197.910156 164.769531 197.898438 164.769531 C 197.894531 164.769531 197.894531 164.769531 197.890625 164.769531 C 197.882812 164.769531 197.867188 164.769531 197.859375 164.769531 C 197.855469 164.769531 197.851562 164.769531 197.851562 164.769531 C 197.839844 164.769531 197.828125 164.769531 197.816406 164.769531 C 197.816406 164.769531 197.816406 164.769531 197.8125 164.765625 C 197.800781 164.765625 197.789062 164.765625 197.777344 164.765625 L 197.773438 164.765625 C 197.761719 164.765625 197.746094 164.765625 197.734375 164.765625 C 191.070312 164.59375 185.054688 161.773438 180.683594 157.328125 C 182.753906 157.042969 184.824219 156.707031 186.863281 156.28125 C 190.125 158.589844 194.101562 159.949219 198.382812 159.949219 C 209.414062 159.949219 218.414062 150.9375 218.414062 139.890625 C 218.414062 135.324219 216.878906 131.109375 214.292969 127.730469 C 214.675781 125.65625 214.9375 123.566406 215.070312 121.480469 C 219.847656 125.824219 222.941406 131.996094 223.214844 138.871094 L 223.214844 138.875 C 223.222656 138.898438 223.222656 138.925781 223.222656 138.957031 C 223.222656 138.96875 223.222656 138.984375 223.222656 139 C 223.226562 139.011719 223.226562 139.023438 223.226562 139.039062 C 223.226562 139.042969 223.226562 139.042969 223.226562 139.042969 C 223.226562 139.128906 223.230469 139.210938 223.234375 139.292969 C 223.234375 139.296875 223.234375 139.296875 223.234375 139.296875 C 223.234375 139.308594 223.234375 139.324219 223.234375 139.335938 C 223.234375 139.339844 223.234375 139.339844 223.234375 139.34375 C 223.234375 139.355469 223.234375 139.367188 223.234375 139.378906 C 223.234375 139.378906 223.234375 139.382812 223.234375 139.386719 C 223.234375 139.398438 223.234375 139.410156 223.234375 139.417969 C 223.234375 139.421875 223.234375 139.425781 223.234375 139.429688 C 223.234375 139.441406 223.234375 139.453125 223.234375 139.460938 C 223.238281 139.464844 223.238281 139.46875 223.238281 139.472656 C 223.238281 139.480469 223.238281 139.492188 223.238281 139.5 C 223.238281 139.507812 223.238281 139.511719 223.238281 139.515625 C 223.238281 139.523438 223.238281 139.535156 223.238281 139.542969 C 223.238281 139.546875 223.238281 139.554688 223.238281 139.558594 C 223.238281 139.566406 223.238281 139.578125 223.238281 139.585938 C 223.238281 139.589844 223.238281 139.59375 223.238281 139.597656 C 223.238281 139.605469 223.238281 139.617188 223.238281 139.625 C 223.238281 139.628906 223.238281 139.636719 223.238281 139.640625 C 223.238281 139.648438 223.238281 139.660156 223.238281 139.667969 C 223.238281 139.671875 223.238281 139.675781 223.238281 139.683594 C 223.238281 139.6875 223.238281 139.699219 223.238281 139.707031 C 223.238281 139.714844 223.238281 139.71875 223.238281 139.722656 C 223.238281 139.730469 223.238281 139.742188 223.238281 139.75 C 223.238281 139.753906 223.238281 139.761719 223.238281 139.765625 C 223.238281 139.773438 223.238281 139.785156 223.238281 139.792969 C 223.238281 139.796875 223.238281 139.800781 223.238281 139.808594 C 223.238281 139.820312 223.238281 139.828125 223.238281 139.835938 C 223.238281 139.839844 223.238281 139.84375 223.238281 139.847656 C 223.238281 139.863281 223.238281 139.878906 223.238281 139.890625 C 223.238281 153.597656 212.074219 164.777344 198.382812 164.777344 " fill-opacity="1" fill-rule="nonzero"/><path fill="#ba9744" d="M 198.382812 159.949219 C 194.101562 159.949219 190.125 158.589844 186.863281 156.28125 C 190.378906 155.546875 193.804688 154.542969 196.996094 153.0625 L 200.128906 153.0625 L 200.128906 151.414062 C 200.863281 150.96875 201.578125 150.5 202.28125 149.996094 C 202.550781 149.9375 202.820312 149.878906 203.082031 149.808594 C 204.023438 149.5625 204.84375 149.199219 205.5625 148.707031 C 206.277344 148.210938 206.84375 147.597656 207.261719 146.859375 C 207.621094 146.214844 207.824219 145.472656 207.875 144.636719 C 211.554688 139.894531 213.128906 133.800781 214.238281 127.996094 C 214.257812 127.90625 214.273438 127.820312 214.292969 127.730469 C 216.878906 131.109375 218.414062 135.324219 218.414062 139.890625 C 218.414062 150.9375 209.414062 159.949219 198.382812 159.949219 " fill-opacity="1" fill-rule="nonzero"/><path fill="#b27510" d="M 200.128906 153.0625 L 196.996094 153.0625 C 198.070312 152.570312 199.113281 152.019531 200.128906 151.414062 L 200.128906 153.0625 M 202.28125 149.996094 C 204.109375 148.671875 205.816406 147.113281 207.363281 145.273438 C 207.539062 145.0625 207.707031 144.851562 207.875 144.636719 C 207.824219 145.472656 207.621094 146.214844 207.261719 146.859375 C 206.84375 147.597656 206.277344 148.210938 205.5625 148.707031 C 204.84375 149.199219 204.023438 149.5625 203.082031 149.808594 C 202.820312 149.878906 202.550781 149.9375 202.28125 149.996094 " fill-opacity="1" fill-rule="nonzero"/><path fill="#f1a017" d="M 167.972656 107.515625 C 181.660156 107.515625 192.832031 96.335938 192.832031 82.628906 C 192.832031 68.925781 181.660156 57.746094 167.972656 57.746094 C 154.28125 57.746094 143.117188 68.925781 143.117188 82.628906 C 143.117188 96.335938 154.28125 107.515625 167.972656 107.515625 " fill-opacity="1" fill-rule="evenodd"/><path fill="#fcce5c" d="M 167.972656 102.683594 C 179.003906 102.683594 188 93.671875 188 82.628906 C 188 71.585938 179.003906 62.578125 167.972656 62.578125 C 156.941406 62.578125 147.941406 71.585938 147.941406 82.628906 C 147.941406 93.671875 156.941406 102.683594 167.972656 102.683594 " fill-opacity="1" fill-rule="evenodd"/><path fill="#f1a017" d="M 166.242188 92.710938 C 165.238281 92.476562 164.195312 92.046875 163.117188 91.445312 L 163.117188 92.644531 L 158.65625 92.644531 L 158.65625 85.222656 L 163.117188 85.222656 C 163.367188 86.304688 163.886719 87.144531 164.679688 87.746094 C 165.46875 88.355469 166.351562 88.65625 167.335938 88.65625 C 168.011719 88.65625 168.507812 88.527344 168.820312 88.273438 C 169.136719 88.015625 169.292969 87.738281 169.292969 87.441406 C 169.292969 86.949219 169.019531 86.566406 168.484375 86.289062 C 167.949219 86.015625 167.289062 85.765625 166.488281 85.550781 C 165.699219 85.335938 164.828125 85.09375 163.886719 84.832031 C 162.953125 84.5625 162.082031 84.183594 161.289062 83.679688 C 160.496094 83.175781 159.828125 82.515625 159.28125 81.699219 C 158.742188 80.878906 158.472656 79.800781 158.472656 78.457031 C 158.472656 77.476562 158.683594 76.601562 159.101562 75.863281 C 159.527344 75.105469 160.09375 74.472656 160.8125 73.957031 C 161.527344 73.445312 162.355469 73.046875 163.289062 72.769531 C 164.226562 72.488281 165.210938 72.34375 166.242188 72.34375 L 166.242188 69.460938 L 169.722656 69.460938 L 169.722656 72.777344 C 170.28125 72.9375 170.789062 73.113281 171.230469 73.316406 C 171.679688 73.519531 172.046875 73.703125 172.351562 73.886719 L 172.351562 72.65625 L 176.859375 72.65625 L 176.859375 79.898438 L 172.351562 79.898438 C 172.277344 79.433594 172.117188 78.996094 171.859375 78.605469 C 171.597656 78.210938 171.292969 77.871094 170.929688 77.585938 C 170.570312 77.3125 170.171875 77.085938 169.722656 76.921875 C 169.277344 76.75 168.832031 76.671875 168.382812 76.671875 C 167.828125 76.671875 167.359375 76.78125 166.996094 76.988281 C 166.628906 77.199219 166.449219 77.507812 166.449219 77.910156 C 166.449219 78.402344 166.71875 78.773438 167.273438 79.03125 C 167.835938 79.285156 168.511719 79.53125 169.316406 79.757812 C 170.125 79.976562 171.011719 80.222656 171.96875 80.496094 C 172.929688 80.757812 173.8125 81.152344 174.617188 81.65625 C 175.425781 82.15625 176.105469 82.828125 176.652344 83.671875 C 177.199219 84.511719 177.472656 85.613281 177.472656 86.976562 C 177.472656 87.984375 177.269531 88.855469 176.851562 89.59375 C 176.433594 90.332031 175.859375 90.945312 175.148438 91.445312 C 174.433594 91.929688 173.609375 92.296875 172.675781 92.546875 C 171.730469 92.789062 170.75 92.941406 169.722656 92.984375 L 169.722656 95.800781 L 166.242188 95.800781 L 166.242188 92.710938 " fill-opacity="1" fill-rule="nonzero"/><path fill="#bdbcbd" d="M 167.933594 107.515625 C 167.925781 107.515625 167.917969 107.515625 167.914062 107.515625 C 167.917969 107.515625 167.925781 107.515625 167.933594 107.515625 M 167.890625 107.515625 C 167.886719 107.515625 167.878906 107.515625 167.875 107.515625 C 167.878906 107.515625 167.886719 107.515625 167.890625 107.515625 M 167.851562 107.515625 C 167.84375 107.515625 167.839844 107.515625 167.832031 107.515625 C 167.839844 107.515625 167.84375 107.515625 167.851562 107.515625 M 167.808594 107.515625 C 167.804688 107.515625 167.800781 107.515625 167.792969 107.515625 C 167.800781 107.515625 167.804688 107.515625 167.808594 107.515625 M 167.769531 107.515625 C 167.765625 107.515625 167.757812 107.515625 167.753906 107.515625 C 167.757812 107.515625 167.765625 107.515625 167.769531 107.515625 M 167.730469 107.515625 C 167.722656 107.515625 167.71875 107.515625 167.714844 107.515625 C 167.71875 107.515625 167.722656 107.515625 167.730469 107.515625 M 167.6875 107.511719 C 167.683594 107.511719 167.679688 107.511719 167.671875 107.511719 C 167.675781 107.511719 167.683594 107.511719 167.6875 107.511719 M 167.648438 107.511719 C 167.644531 107.511719 167.636719 107.511719 167.632812 107.511719 C 167.636719 107.511719 167.644531 107.511719 167.648438 107.511719 M 167.609375 107.511719 C 167.601562 107.511719 167.597656 107.511719 167.59375 107.511719 C 167.597656 107.511719 167.601562 107.511719 167.609375 107.511719 M 167.566406 107.511719 C 167.5625 107.511719 167.558594 107.511719 167.554688 107.511719 C 167.558594 107.511719 167.5625 107.511719 167.566406 107.511719 M 167.527344 107.511719 C 167.523438 107.511719 167.519531 107.511719 167.511719 107.511719 C 167.519531 107.511719 167.523438 107.511719 167.527344 107.511719 M 167.492188 107.511719 C 167.484375 107.511719 167.476562 107.511719 167.472656 107.511719 C 167.480469 107.511719 167.480469 107.511719 167.492188 107.511719 M 167.449219 107.511719 C 167.441406 107.511719 167.4375 107.511719 167.433594 107.511719 C 167.4375 107.511719 167.441406 107.511719 167.449219 107.511719 M 167.410156 107.503906 C 167.40625 107.503906 167.398438 107.503906 167.398438 107.503906 C 167.398438 107.503906 167.40625 107.503906 167.410156 107.503906 M 167.367188 107.503906 C 167.367188 107.503906 167.359375 107.503906 167.355469 107.503906 C 167.359375 107.503906 167.367188 107.503906 167.367188 107.503906 M 167.328125 107.503906 C 167.324219 107.503906 167.316406 107.503906 167.316406 107.503906 C 167.316406 107.503906 167.324219 107.503906 167.328125 107.503906 M 167.289062 107.503906 C 167.285156 107.503906 167.28125 107.503906 167.273438 107.503906 C 167.28125 107.503906 167.285156 107.503906 167.289062 107.503906 M 167.25 107.5 C 167.246094 107.5 167.242188 107.5 167.234375 107.5 C 167.242188 107.5 167.246094 107.5 167.25 107.5 M 167.207031 107.5 C 167.207031 107.5 167.203125 107.5 167.199219 107.5 C 167.203125 107.5 167.207031 107.5 167.207031 107.5 M 167.167969 107.5 C 167.164062 107.5 167.164062 107.5 167.160156 107.5 C 167.164062 107.5 167.164062 107.5 167.167969 107.5 M 167.125 107.496094 C 167.125 107.496094 167.121094 107.496094 167.121094 107.496094 C 167.121094 107.496094 167.125 107.496094 167.125 107.496094 M 167.085938 107.496094 C 167.085938 107.496094 167.082031 107.496094 167.082031 107.496094 C 167.082031 107.496094 167.085938 107.496094 167.085938 107.496094 M 167.046875 107.496094 C 167.042969 107.496094 167.042969 107.496094 167.042969 107.496094 C 167.042969 107.496094 167.042969 107.496094 167.046875 107.496094 M 167.003906 107.492188 C 167.003906 107.492188 167.003906 107.492188 167 107.492188 C 167 107.492188 167.003906 107.492188 167.003906 107.492188 M 166.964844 107.492188 C 166.964844 107.492188 166.964844 107.492188 166.960938 107.492188 C 166.964844 107.492188 166.960938 107.492188 166.964844 107.492188 M 166.925781 107.492188 L 166.921875 107.492188 C 166.925781 107.492188 166.921875 107.492188 166.925781 107.492188 M 192.832031 82.589844 C 192.832031 82.585938 192.832031 82.578125 192.832031 82.574219 C 192.832031 82.578125 192.832031 82.585938 192.832031 82.589844 M 192.832031 82.546875 C 192.832031 82.542969 192.832031 82.535156 192.832031 82.53125 C 192.832031 82.535156 192.832031 82.542969 192.832031 82.546875 M 192.832031 82.503906 C 192.832031 82.5 192.832031 82.496094 192.832031 82.488281 C 192.832031 82.496094 192.832031 82.5 192.832031 82.503906 M 192.832031 82.464844 C 192.832031 82.457031 192.832031 82.453125 192.832031 82.445312 C 192.832031 82.453125 192.832031 82.457031 192.832031 82.464844 M 192.832031 82.421875 C 192.832031 82.417969 192.832031 82.410156 192.832031 82.40625 C 192.832031 82.410156 192.832031 82.417969 192.832031 82.421875 M 192.832031 82.382812 C 192.832031 82.375 192.832031 82.371094 192.832031 82.363281 C 192.832031 82.371094 192.832031 82.375 192.832031 82.382812 M 192.832031 82.339844 C 192.832031 82.335938 192.832031 82.328125 192.832031 82.324219 C 192.832031 82.328125 192.832031 82.335938 192.832031 82.339844 M 192.832031 82.296875 C 192.832031 82.292969 192.832031 82.289062 192.832031 82.28125 C 192.832031 82.289062 192.832031 82.292969 192.832031 82.296875 M 192.824219 82.253906 C 192.824219 82.25 192.824219 82.246094 192.824219 82.242188 C 192.824219 82.246094 192.824219 82.25 192.824219 82.253906 M 192.824219 82.210938 C 192.824219 82.210938 192.824219 82.203125 192.824219 82.199219 C 192.824219 82.203125 192.824219 82.207031 192.824219 82.210938 M 192.824219 82.167969 C 192.824219 82.167969 192.824219 82.164062 192.824219 82.160156 C 192.824219 82.164062 192.824219 82.167969 192.824219 82.167969 M 192.824219 82.125 C 192.824219 82.125 192.824219 82.121094 192.824219 82.117188 C 192.824219 82.121094 192.824219 82.125 192.824219 82.125 M 187.378906 67.109375 C 186.546875 66.074219 185.640625 65.105469 184.660156 64.214844 C 185.640625 65.101562 186.546875 66.074219 187.378906 67.109375 " fill-opacity="1" fill-rule="nonzero"/><path fill="#b27510" d="M 167.972656 107.515625 C 167.960938 107.515625 167.949219 107.515625 167.933594 107.515625 C 167.925781 107.515625 167.917969 107.515625 167.914062 107.515625 C 167.902344 107.515625 167.898438 107.515625 167.890625 107.515625 C 167.886719 107.515625 167.878906 107.515625 167.875 107.515625 C 167.867188 107.515625 167.855469 107.515625 167.851562 107.515625 C 167.84375 107.515625 167.839844 107.515625 167.832031 107.515625 C 167.828125 107.515625 167.816406 107.515625 167.808594 107.515625 C 167.804688 107.515625 167.800781 107.515625 167.792969 107.515625 C 167.785156 107.515625 167.777344 107.515625 167.769531 107.515625 C 167.765625 107.515625 167.757812 107.515625 167.753906 107.515625 C 167.746094 107.515625 167.734375 107.515625 167.730469 107.515625 C 167.722656 107.515625 167.71875 107.515625 167.714844 107.515625 C 167.707031 107.511719 167.699219 107.511719 167.6875 107.511719 C 167.683594 107.511719 167.675781 107.511719 167.671875 107.511719 C 167.667969 107.511719 167.660156 107.511719 167.648438 107.511719 C 167.644531 107.511719 167.636719 107.511719 167.632812 107.511719 C 167.625 107.511719 167.621094 107.511719 167.609375 107.511719 C 167.601562 107.511719 167.597656 107.511719 167.59375 107.511719 C 167.585938 107.511719 167.578125 107.511719 167.566406 107.511719 C 167.5625 107.511719 167.558594 107.511719 167.554688 107.511719 C 167.546875 107.511719 167.539062 107.511719 167.527344 107.511719 C 167.523438 107.511719 167.519531 107.511719 167.511719 107.511719 C 167.503906 107.511719 167.5 107.511719 167.492188 107.511719 C 167.480469 107.511719 167.480469 107.511719 167.472656 107.511719 C 167.464844 107.511719 167.457031 107.511719 167.449219 107.511719 C 167.441406 107.511719 167.4375 107.511719 167.433594 107.511719 C 167.425781 107.503906 167.417969 107.503906 167.410156 107.503906 C 167.40625 107.503906 167.398438 107.503906 167.398438 107.503906 C 167.386719 107.503906 167.378906 107.503906 167.367188 107.503906 C 167.367188 107.503906 167.359375 107.503906 167.355469 107.503906 C 167.347656 107.503906 167.339844 107.503906 167.328125 107.503906 C 167.324219 107.503906 167.316406 107.503906 167.316406 107.503906 C 167.304688 107.503906 167.296875 107.503906 167.289062 107.503906 C 167.285156 107.503906 167.28125 107.503906 167.273438 107.503906 C 167.265625 107.503906 167.257812 107.503906 167.25 107.5 C 167.246094 107.5 167.242188 107.5 167.234375 107.5 C 167.226562 107.5 167.214844 107.5 167.207031 107.5 C 167.207031 107.5 167.203125 107.5 167.199219 107.5 C 167.1875 107.5 167.175781 107.5 167.167969 107.5 C 167.164062 107.5 167.164062 107.5 167.160156 107.5 C 167.144531 107.496094 167.136719 107.496094 167.125 107.496094 C 167.125 107.496094 167.121094 107.496094 167.121094 107.496094 C 167.105469 107.496094 167.097656 107.496094 167.085938 107.496094 C 167.085938 107.496094 167.082031 107.496094 167.082031 107.496094 C 167.066406 107.496094 167.054688 107.496094 167.046875 107.496094 C 167.042969 107.496094 167.042969 107.496094 167.042969 107.496094 C 167.03125 107.496094 167.015625 107.492188 167.003906 107.492188 C 167.003906 107.492188 167 107.492188 167 107.492188 C 166.984375 107.492188 166.976562 107.492188 166.964844 107.492188 C 166.960938 107.492188 166.964844 107.492188 166.960938 107.492188 C 166.949219 107.492188 166.933594 107.492188 166.925781 107.492188 C 166.921875 107.492188 166.925781 107.492188 166.921875 107.492188 C 160.421875 107.214844 154.558594 104.425781 150.269531 100.066406 C 152.347656 99.785156 154.417969 99.445312 156.457031 99.019531 C 159.714844 101.324219 163.691406 102.683594 167.972656 102.683594 C 179.003906 102.683594 188 93.671875 188 82.628906 C 188 78.066406 186.464844 73.847656 183.878906 70.46875 C 184.265625 68.394531 184.527344 66.304688 184.660156 64.214844 C 185.640625 65.105469 186.546875 66.074219 187.378906 67.109375 C 190.675781 71.230469 192.699219 76.425781 192.824219 82.078125 C 192.824219 82.089844 192.824219 82.105469 192.824219 82.117188 C 192.824219 82.121094 192.824219 82.125 192.824219 82.125 C 192.824219 82.136719 192.824219 82.148438 192.824219 82.160156 C 192.824219 82.164062 192.824219 82.167969 192.824219 82.167969 C 192.824219 82.179688 192.824219 82.191406 192.824219 82.199219 C 192.824219 82.203125 192.824219 82.210938 192.824219 82.210938 C 192.824219 82.226562 192.824219 82.234375 192.824219 82.242188 C 192.824219 82.246094 192.824219 82.25 192.824219 82.253906 C 192.824219 82.261719 192.824219 82.273438 192.832031 82.28125 C 192.832031 82.289062 192.832031 82.292969 192.832031 82.296875 C 192.832031 82.308594 192.832031 82.316406 192.832031 82.324219 C 192.832031 82.328125 192.832031 82.335938 192.832031 82.339844 C 192.832031 82.351562 192.832031 82.355469 192.832031 82.363281 C 192.832031 82.371094 192.832031 82.375 192.832031 82.382812 C 192.832031 82.390625 192.832031 82.398438 192.832031 82.40625 C 192.832031 82.410156 192.832031 82.417969 192.832031 82.421875 C 192.832031 82.433594 192.832031 82.441406 192.832031 82.445312 C 192.832031 82.453125 192.832031 82.457031 192.832031 82.464844 C 192.832031 82.476562 192.832031 82.484375 192.832031 82.488281 C 192.832031 82.496094 192.832031 82.5 192.832031 82.503906 C 192.832031 82.515625 192.832031 82.523438 192.832031 82.53125 C 192.832031 82.535156 192.832031 82.542969 192.832031 82.546875 C 192.832031 82.558594 192.832031 82.566406 192.832031 82.574219 C 192.832031 82.578125 192.832031 82.585938 192.832031 82.589844 C 192.832031 82.605469 192.832031 82.617188 192.832031 82.628906 C 192.832031 96.335938 181.660156 107.515625 167.972656 107.515625 " fill-opacity="1" fill-rule="nonzero"/><path fill="#ba9744" d="M 167.972656 102.683594 C 163.691406 102.683594 159.714844 101.324219 156.457031 99.019531 C 159.96875 98.28125 163.390625 97.277344 166.585938 95.800781 L 169.722656 95.800781 L 169.722656 94.144531 C 170.457031 93.710938 171.171875 93.234375 171.867188 92.730469 C 172.140625 92.679688 172.40625 92.617188 172.675781 92.546875 C 173.609375 92.296875 174.433594 91.929688 175.148438 91.445312 C 175.859375 90.945312 176.433594 90.332031 176.851562 89.59375 C 177.210938 88.953125 177.414062 88.210938 177.460938 87.371094 C 181.148438 82.628906 182.714844 76.535156 183.832031 70.734375 C 183.847656 70.648438 183.863281 70.558594 183.878906 70.46875 C 186.464844 73.847656 188 78.066406 188 82.628906 C 188 93.671875 179.003906 102.683594 167.972656 102.683594 " fill-opacity="1" fill-rule="nonzero"/><path fill="#b27510" d="M 169.722656 95.800781 L 166.585938 95.800781 C 167.660156 95.304688 168.707031 94.757812 169.722656 94.144531 L 169.722656 95.800781 M 171.867188 92.730469 C 173.695312 91.410156 175.398438 89.851562 176.949219 88.011719 C 177.125 87.796875 177.292969 87.585938 177.460938 87.371094 C 177.414062 88.210938 177.210938 88.953125 176.851562 89.59375 C 176.433594 90.332031 175.859375 90.945312 175.148438 91.445312 C 174.433594 91.929688 173.609375 92.296875 172.675781 92.546875 C 172.40625 92.617188 172.140625 92.679688 171.867188 92.730469 " fill-opacity="1" fill-rule="nonzero"/><g clip-path="url(#396b2999be)"><path fill="#f1a017" d="M 225.171875 72.234375 C 238.863281 72.234375 250.035156 61.054688 250.035156 47.355469 C 250.035156 33.652344 238.863281 22.472656 225.171875 22.472656 C 211.480469 22.472656 200.316406 33.652344 200.316406 47.355469 C 200.316406 61.054688 211.480469 72.234375 225.171875 72.234375 " fill-opacity="1" fill-rule="evenodd"/></g><path fill="#fcce5c" d="M 225.171875 67.40625 C 236.210938 67.40625 245.203125 58.398438 245.203125 47.355469 C 245.203125 36.3125 236.210938 27.304688 225.171875 27.304688 C 214.144531 27.304688 205.144531 36.3125 205.144531 47.355469 C 205.144531 58.398438 214.144531 67.40625 225.171875 67.40625 " fill-opacity="1" fill-rule="evenodd"/><path fill="#f1a017" d="M 223.441406 57.441406 C 222.4375 57.195312 221.394531 56.765625 220.320312 56.167969 L 220.320312 57.367188 L 215.859375 57.367188 L 215.859375 49.949219 L 220.320312 49.949219 C 220.570312 51.023438 221.085938 51.871094 221.878906 52.472656 C 222.667969 53.082031 223.558594 53.378906 224.535156 53.378906 C 225.210938 53.378906 225.707031 53.257812 226.027344 52.996094 C 226.335938 52.738281 226.496094 52.460938 226.496094 52.164062 C 226.496094 51.667969 226.226562 51.289062 225.691406 51.011719 C 225.152344 50.734375 224.488281 50.496094 223.6875 50.273438 C 222.898438 50.054688 222.03125 49.8125 221.085938 49.554688 C 220.15625 49.289062 219.289062 48.90625 218.496094 48.402344 C 217.699219 47.898438 217.027344 47.238281 216.484375 46.417969 C 215.941406 45.601562 215.671875 44.523438 215.671875 43.183594 C 215.671875 42.199219 215.882812 41.332031 216.308594 40.574219 C 216.726562 39.835938 217.300781 39.195312 218.015625 38.683594 C 218.730469 38.167969 219.558594 37.769531 220.488281 37.492188 C 221.429688 37.207031 222.410156 37.070312 223.441406 37.070312 L 223.441406 34.179688 L 226.921875 34.179688 L 226.921875 37.5 C 227.484375 37.660156 227.988281 37.839844 228.433594 38.039062 C 228.878906 38.238281 229.253906 38.433594 229.550781 38.609375 L 229.550781 37.378906 L 234.058594 37.378906 L 234.058594 44.621094 L 229.550781 44.621094 C 229.476562 44.15625 229.316406 43.722656 229.058594 43.328125 C 228.800781 42.933594 228.492188 42.59375 228.128906 42.320312 C 227.773438 42.035156 227.371094 41.808594 226.921875 41.648438 C 226.484375 41.480469 226.03125 41.394531 225.585938 41.394531 C 225.027344 41.394531 224.566406 41.503906 224.199219 41.710938 C 223.828125 41.925781 223.652344 42.226562 223.652344 42.632812 C 223.652344 43.125 223.921875 43.5 224.484375 43.761719 C 225.035156 44.015625 225.714844 44.257812 226.519531 44.480469 C 227.328125 44.703125 228.210938 44.949219 229.171875 45.21875 C 230.132812 45.488281 231.015625 45.871094 231.820312 46.378906 C 232.628906 46.878906 233.300781 47.550781 233.851562 48.390625 C 234.402344 49.238281 234.679688 50.335938 234.679688 51.703125 C 234.679688 52.707031 234.46875 53.578125 234.050781 54.316406 C 233.632812 55.054688 233.0625 55.675781 232.347656 56.167969 C 231.636719 56.65625 230.8125 57.027344 229.875 57.265625 C 228.933594 57.519531 227.953125 57.667969 226.921875 57.707031 L 226.921875 60.523438 L 223.441406 60.523438 L 223.441406 57.441406 " fill-opacity="1" fill-rule="nonzero"/><path fill="#bdbcbd" d="M 225.132812 72.234375 C 225.125 72.234375 225.121094 72.234375 225.117188 72.234375 C 225.121094 72.234375 225.128906 72.234375 225.132812 72.234375 M 225.089844 72.234375 C 225.085938 72.234375 225.078125 72.234375 225.074219 72.234375 C 225.078125 72.234375 225.085938 72.234375 225.089844 72.234375 M 225.050781 72.234375 C 225.046875 72.234375 225.039062 72.234375 225.035156 72.234375 C 225.039062 72.234375 225.046875 72.234375 225.050781 72.234375 M 225.015625 72.234375 C 225.007812 72.234375 225.003906 72.234375 225 72.234375 C 225.003906 72.234375 225.007812 72.234375 225.015625 72.234375 M 224.96875 72.234375 C 224.964844 72.234375 224.960938 72.234375 224.957031 72.234375 C 224.960938 72.234375 224.964844 72.234375 224.96875 72.234375 M 224.933594 72.234375 C 224.925781 72.234375 224.921875 72.234375 224.917969 72.234375 C 224.921875 72.234375 224.925781 72.234375 224.933594 72.234375 M 224.894531 72.234375 C 224.890625 72.234375 224.882812 72.234375 224.878906 72.234375 C 224.882812 72.234375 224.890625 72.234375 224.894531 72.234375 M 224.851562 72.234375 C 224.851562 72.234375 224.84375 72.234375 224.839844 72.234375 C 224.84375 72.234375 224.851562 72.234375 224.851562 72.234375 M 224.8125 72.234375 C 224.808594 72.234375 224.808594 72.234375 224.800781 72.234375 C 224.808594 72.234375 224.808594 72.234375 224.8125 72.234375 M 224.769531 72.234375 C 224.769531 72.234375 224.769531 72.234375 224.765625 72.234375 C 224.769531 72.234375 224.769531 72.234375 224.769531 72.234375 M 224.730469 72.234375 C 224.730469 72.234375 224.726562 72.234375 224.726562 72.234375 C 224.726562 72.234375 224.730469 72.234375 224.730469 72.234375 M 224.691406 72.230469 C 224.6875 72.230469 224.6875 72.230469 224.6875 72.230469 C 224.6875 72.230469 224.6875 72.230469 224.691406 72.230469 M 224.648438 72.230469 C 224.648438 72.230469 224.648438 72.230469 224.644531 72.230469 C 224.648438 72.230469 224.648438 72.230469 224.648438 72.230469 M 250.035156 47.316406 C 250.035156 47.304688 250.035156 47.300781 250.035156 47.296875 C 250.035156 47.300781 250.035156 47.304688 250.035156 47.316406 M 250.035156 47.273438 C 250.035156 47.265625 250.035156 47.257812 250.035156 47.253906 C 250.035156 47.257812 250.035156 47.265625 250.035156 47.273438 M 250.035156 47.230469 C 250.035156 47.222656 250.035156 47.21875 250.035156 47.210938 C 250.035156 47.21875 250.035156 47.222656 250.035156 47.230469 M 250.035156 47.183594 C 250.035156 47.179688 250.035156 47.175781 250.035156 47.171875 C 250.035156 47.175781 250.035156 47.179688 250.035156 47.183594 M 250.035156 47.148438 C 250.035156 47.140625 250.035156 47.136719 250.035156 47.132812 C 250.035156 47.136719 250.035156 47.140625 250.035156 47.148438 M 250.035156 47.101562 C 250.035156 47.097656 250.035156 47.09375 250.035156 47.089844 C 250.035156 47.09375 250.035156 47.097656 250.035156 47.101562 M 250.035156 47.058594 C 250.035156 47.054688 250.035156 47.050781 250.035156 47.050781 C 250.035156 47.050781 250.035156 47.054688 250.035156 47.058594 M 250.035156 47.015625 C 250.035156 47.011719 250.035156 47.011719 250.035156 47.007812 C 250.035156 47.011719 250.035156 47.011719 250.035156 47.015625 M 250.035156 46.972656 C 250.035156 46.972656 250.035156 46.96875 250.035156 46.964844 C 250.035156 46.96875 250.035156 46.96875 250.035156 46.972656 M 250.03125 46.929688 C 250.03125 46.925781 250.03125 46.925781 250.03125 46.925781 C 250.03125 46.925781 250.03125 46.925781 250.03125 46.929688 M 242.273438 29.320312 C 242.140625 29.191406 242 29.0625 241.859375 28.9375 C 242 29.0625 242.140625 29.191406 242.273438 29.320312 " fill-opacity="1" fill-rule="nonzero"/><path fill="#b27510" d="M 225.171875 72.234375 C 225.160156 72.234375 225.148438 72.234375 225.132812 72.234375 C 225.128906 72.234375 225.121094 72.234375 225.117188 72.234375 C 225.109375 72.234375 225.101562 72.234375 225.089844 72.234375 C 225.085938 72.234375 225.078125 72.234375 225.074219 72.234375 C 225.066406 72.234375 225.0625 72.234375 225.050781 72.234375 C 225.046875 72.234375 225.039062 72.234375 225.035156 72.234375 C 225.027344 72.234375 225.019531 72.234375 225.015625 72.234375 C 225.007812 72.234375 225.003906 72.234375 225 72.234375 C 224.992188 72.234375 224.984375 72.234375 224.96875 72.234375 C 224.964844 72.234375 224.960938 72.234375 224.957031 72.234375 C 224.949219 72.234375 224.941406 72.234375 224.933594 72.234375 C 224.925781 72.234375 224.921875 72.234375 224.917969 72.234375 C 224.910156 72.234375 224.902344 72.234375 224.894531 72.234375 C 224.890625 72.234375 224.882812 72.234375 224.878906 72.234375 C 224.871094 72.234375 224.859375 72.234375 224.851562 72.234375 C 224.851562 72.234375 224.84375 72.234375 224.839844 72.234375 C 224.832031 72.234375 224.820312 72.234375 224.8125 72.234375 C 224.808594 72.234375 224.808594 72.234375 224.800781 72.234375 C 224.789062 72.234375 224.78125 72.234375 224.769531 72.234375 C 224.769531 72.234375 224.769531 72.234375 224.765625 72.234375 C 224.75 72.234375 224.742188 72.234375 224.730469 72.234375 C 224.730469 72.234375 224.726562 72.234375 224.726562 72.234375 C 224.710938 72.234375 224.703125 72.230469 224.691406 72.230469 C 224.6875 72.230469 224.6875 72.230469 224.6875 72.230469 C 224.671875 72.230469 224.660156 72.230469 224.648438 72.230469 C 224.648438 72.230469 224.648438 72.230469 224.644531 72.230469 C 224.632812 72.230469 224.621094 72.230469 224.609375 72.230469 C 217.914062 72.078125 211.867188 69.257812 207.46875 64.785156 C 209.546875 64.503906 211.617188 64.171875 213.652344 63.742188 C 216.917969 66.050781 220.894531 67.40625 225.171875 67.40625 C 236.210938 67.40625 245.203125 58.398438 245.203125 47.355469 C 245.203125 42.789062 243.664062 38.570312 241.082031 35.195312 C 241.472656 33.117188 241.726562 31.035156 241.859375 28.9375 C 242 29.0625 242.140625 29.191406 242.273438 29.320312 C 246.949219 33.773438 249.914062 40.015625 250.03125 46.925781 C 250.03125 46.925781 250.03125 46.925781 250.03125 46.929688 C 250.03125 46.945312 250.03125 46.957031 250.035156 46.964844 C 250.035156 46.96875 250.035156 46.972656 250.035156 46.972656 C 250.035156 46.984375 250.035156 46.996094 250.035156 47.007812 C 250.035156 47.011719 250.035156 47.011719 250.035156 47.015625 C 250.035156 47.027344 250.035156 47.039062 250.035156 47.050781 C 250.035156 47.050781 250.035156 47.054688 250.035156 47.058594 C 250.035156 47.070312 250.035156 47.082031 250.035156 47.089844 C 250.035156 47.09375 250.035156 47.097656 250.035156 47.101562 C 250.035156 47.113281 250.035156 47.121094 250.035156 47.132812 C 250.035156 47.136719 250.035156 47.140625 250.035156 47.148438 C 250.035156 47.15625 250.035156 47.164062 250.035156 47.171875 C 250.035156 47.175781 250.035156 47.179688 250.035156 47.183594 C 250.035156 47.195312 250.035156 47.203125 250.035156 47.210938 C 250.035156 47.21875 250.035156 47.222656 250.035156 47.230469 C 250.035156 47.238281 250.035156 47.246094 250.035156 47.253906 C 250.035156 47.257812 250.035156 47.265625 250.035156 47.273438 C 250.035156 47.28125 250.035156 47.289062 250.035156 47.296875 C 250.035156 47.300781 250.035156 47.304688 250.035156 47.316406 C 250.035156 47.328125 250.035156 47.339844 250.035156 47.355469 C 250.035156 61.054688 238.863281 72.234375 225.171875 72.234375 " fill-opacity="1" fill-rule="nonzero"/><path fill="#ba9744" d="M 225.171875 67.40625 C 220.894531 67.40625 216.917969 66.050781 213.652344 63.742188 C 217.171875 63.003906 220.59375 62 223.789062 60.523438 L 226.921875 60.523438 L 226.921875 58.871094 C 227.65625 58.433594 228.371094 57.960938 229.070312 57.457031 C 229.339844 57.402344 229.613281 57.335938 229.875 57.265625 C 230.8125 57.027344 231.636719 56.65625 232.347656 56.167969 C 233.0625 55.675781 233.632812 55.054688 234.050781 54.316406 C 234.414062 53.679688 234.621094 52.9375 234.667969 52.09375 C 238.351562 47.355469 239.921875 41.257812 241.035156 35.460938 C 241.050781 35.375 241.066406 35.28125 241.082031 35.195312 C 243.664062 38.570312 245.203125 42.789062 245.203125 47.355469 C 245.203125 58.398438 236.210938 67.40625 225.171875 67.40625 " fill-opacity="1" fill-rule="nonzero"/><path fill="#b27510" d="M 226.921875 60.523438 L 223.789062 60.523438 C 224.859375 60.027344 225.90625 59.480469 226.921875 58.871094 L 226.921875 60.523438 M 229.070312 57.457031 C 230.894531 56.132812 232.601562 54.574219 234.152344 52.730469 C 234.332031 52.523438 234.5 52.3125 234.667969 52.09375 C 234.621094 52.9375 234.414062 53.679688 234.050781 54.316406 C 233.632812 55.054688 233.0625 55.675781 232.347656 56.167969 C 231.636719 56.65625 230.8125 57.027344 229.875 57.265625 C 229.613281 57.335938 229.339844 57.402344 229.070312 57.457031 " fill-opacity="1" fill-rule="nonzero"/></svg>